<svg xmlns="http://www.w3.org/2000/svg" xmlns:xlink="http://www.w3.org/1999/xlink">
  <symbol id="chevron-right" viewBox="0 0 8 14">
    <title>chevron-right</title>
    <path d="M1 14c-.26 0-.51-.1-.71-.29a.996.996 0 0 1 0-1.41l5.29-5.29-5.29-5.3C-.1 1.32-.1.68.29.29s1.03-.39 1.42 0l6 6c.39.39.39 1.02 0 1.41l-6 6.01c-.2.2-.45.29-.71.29"/>
  </symbol>
  <symbol id="download" viewBox="0 0 24 24">
    <title>download</title>
    <path d="M17.6 8.02c-.17-.07-.37-.11-.59-.12h-.28c-.15 0-.32.01-.5.03l-.2.04-2.71 1.82V3.97c.01-.13-.03-.24-.11-.34s-.2-.16-.34-.14h-2.69c-.12-.01-.23.03-.33.11-.1.08-.14.19-.13.33v5.82L7.35 7.97l-.21-.04c-.17-.02-.33-.03-.49-.03h-.28c-.23.01-.44.05-.6.12a1.4 1.4 0 0 0-.53.41c-.2.27-.3.57-.3.9 0 .33.1.64.3.91.01.01.24.28.7.84 1.97 2.4 3.38 4.03 4.24 4.94.36.43.81.73 1.37.89.53-.17.97-.47 1.32-.89.76-.83 2.05-2.33 3.92-4.52.7-.84 1.06-1.27 1.08-1.28.21-.26.32-.56.33-.91.01-.34-.1-.64-.31-.9a1.4 1.4 0 0 0-.53-.41zm2.14 8.92h-2.19v1.32c0 .12-.04.22-.12.31-.08.09-.19.14-.32.15H6.62c-.12 0-.22-.05-.3-.15-.08-.1-.13-.2-.14-.31v-1.32H4v3.49c-.02.25.06.46.25.64.19.18.4.26.64.25h14.01c.25.01.46-.07.64-.25.19-.18.26-.4.25-.64v-3.49h-.02z"/>
  </symbol>
  <symbol id="external" viewBox="0 0 10 10">
    <title>external</title>
    <path d="M6.6 8.2a34.45 34.45 0 0 1-4-.2 1.08 1.08 0 0 1-.8-.9 32.72 32.72 0 0 1-.2-4c0-.4 0-1.9.1-3.1a1.27 1.27 0 0 0-.6.1 1.06 1.06 0 0 0-.9.9A32.11 32.11 0 0 0 0 4.9a34.45 34.45 0 0 0 .2 4 1.06 1.06 0 0 0 .9.9A32.11 32.11 0 0 0 5 10a34.45 34.45 0 0 0 4-.2 1.06 1.06 0 0 0 .9-.9c0-.3.1-.5.1-.8-1.3.1-3 .1-3.4.1" />
    <path d="m10 .8-.6 4.5c0 .3-.3.5-.6.6a.63.63 0 0 1-.6-.5l-.3-1.1s.7-1.3.7-1.4v-.1L5.4 6c-.4.3-.8.1-1.2-.2S3.7 5 4 4.6l2.3-2.3-1.7-.5a.56.56 0 0 1-.5-.6.65.65 0 0 1 .6-.6L9.3 0c.2 0 .4 0 .5.2a1.42 1.42 0 0 1 .2.6" />
  </symbol>
  <symbol id="sort" viewBox="0 0 320 512"><!--!Font Awesome Free 6.7.2 by @fontawesome - https://fontawesome.com License - https://fontawesome.com/license/free Copyright 2025 Fonticons, Inc.--><path d="M137.4 41.4c12.5-12.5 32.8-12.5 45.3 0l128 128c9.2 9.2 11.9 22.9 6.9 34.9s-16.6 19.8-29.6 19.8L32 224c-12.9 0-24.6-7.8-29.6-19.8s-2.2-25.7 6.9-34.9l128-128zm0 429.3l-128-128c-9.2-9.2-11.9-22.9-6.9-34.9s16.6-19.8 29.6-19.8l256 0c12.9 0 24.6 7.8 29.6 19.8s2.2 25.7-6.9 34.9l-128 128c-12.5 12.5-32.8 12.5-45.3 0z"/></symbol>
  <symbol id="chevron-up" viewBox="0 0 512 512"><!--!Font Awesome Free 6.7.2 by @fontawesome - https://fontawesome.com License - https://fontawesome.com/license/free Copyright 2025 Fonticons, Inc.--><path d="M233.4 105.4c12.5-12.5 32.8-12.5 45.3 0l192 192c12.5 12.5 12.5 32.8 0 45.3s-32.8 12.5-45.3 0L256 173.3 86.6 342.6c-12.5 12.5-32.8 12.5-45.3 0s-12.5-32.8 0-45.3l192-192z"/></symbol>
  <symbol id="chevron-down" viewBox="0 0 512 512"><!--!Font Awesome Free 6.7.2 by @fontawesome - https://fontawesome.com License - https://fontawesome.com/license/free Copyright 2025 Fonticons, Inc.--><path d="M233.4 406.6c12.5 12.5 32.8 12.5 45.3 0l192-192c12.5-12.5 12.5-32.8 0-45.3s-32.8-12.5-45.3 0L256 338.7 86.6 169.4c-12.5-12.5-32.8-12.5-45.3 0s-12.5 32.8 0 45.3l192 192z"/></symbol>
  <symbol id="question" viewBox="0 0 320 512"><!--!Font Awesome Free 6.7.2 by @fontawesome - https://fontawesome.com License - https://fontawesome.com/license/free Copyright 2025 Fonticons, Inc.--><path d="M80 160c0-35.3 28.7-64 64-64l32 0c35.3 0 64 28.7 64 64l0 3.6c0 21.8-11.1 42.1-29.4 53.8l-42.2 27.1c-25.2 16.2-40.4 44.1-40.4 74l0 1.4c0 17.7 14.3 32 32 32s32-14.3 32-32l0-1.4c0-8.2 4.2-15.8 11-20.2l42.2-27.1c36.6-23.6 58.8-64.1 58.8-107.7l0-3.6c0-70.7-57.3-128-128-128l-32 0C73.3 32 16 89.3 16 160c0 17.7 14.3 32 32 32s32-14.3 32-32zm80 320a40 40 0 1 0 0-80 40 40 0 1 0 0 80z"/></symbol>
  <symbol id="info" viewBox="0 0 192 512"><!--!Font Awesome Free 6.7.2 by @fontawesome - https://fontawesome.com License - https://fontawesome.com/license/free Copyright 2025 Fonticons, Inc.--><path d="M48 80a48 48 0 1 1 96 0A48 48 0 1 1 48 80zM0 224c0-17.7 14.3-32 32-32l64 0c17.7 0 32 14.3 32 32l0 224 32 0c17.7 0 32 14.3 32 32s-14.3 32-32 32L32 512c-17.7 0-32-14.3-32-32s14.3-32 32-32l32 0 0-192-32 0c-17.7 0-32-14.3-32-32z"/></symbol>
  <symbol id="user" viewBox="0 0 640 640"><!--!Font Awesome Free v7.1.0 by @fontawesome - https://fontawesome.com License - https://fontawesome.com/license/free Copyright 2026 Fonticons, Inc.--><path d="M320 312C386.3 312 440 258.3 440 192C440 125.7 386.3 72 320 72C253.7 72 200 125.7 200 192C200 258.3 253.7 312 320 312zM290.3 368C191.8 368 112 447.8 112 546.3C112 562.7 125.3 576 141.7 576L498.3 576C514.7 576 528 562.7 528 546.3C528 447.8 448.2 368 349.7 368L290.3 368z"/></symbol>
  <symbol id="logout" viewBox="0 0 640 640"><!--!Font Awesome Free v7.1.0 by @fontawesome - https://fontawesome.com License - https://fontawesome.com/license/free Copyright 2026 Fonticons, Inc.--><path d="M224 160C241.7 160 256 145.7 256 128C256 110.3 241.7 96 224 96L160 96C107 96 64 139 64 192L64 448C64 501 107 544 160 544L224 544C241.7 544 256 529.7 256 512C256 494.3 241.7 480 224 480L160 480C142.3 480 128 465.7 128 448L128 192C128 174.3 142.3 160 160 160L224 160zM566.6 342.6C579.1 330.1 579.1 309.8 566.6 297.3L438.6 169.3C426.1 156.8 405.8 156.8 393.3 169.3C380.8 181.8 380.8 202.1 393.3 214.6L466.7 288L256 288C238.3 288 224 302.3 224 320C224 337.7 238.3 352 256 352L466.7 352L393.3 425.4C380.8 437.9 380.8 458.2 393.3 470.7C405.8 483.2 426.1 483.2 438.6 470.7L566.6 342.7z"/></symbol>
  <symbol id="pen" viewBox="0 0 640 640"><!--!Font Awesome Free v7.1.0 by @fontawesome - https://fontawesome.com License - https://fontawesome.com/license/free Copyright 2026 Fonticons, Inc.--><path d="M535.6 85.7C513.7 63.8 478.3 63.8 456.4 85.7L432 110.1L529.9 208L554.3 183.6C576.2 161.7 576.2 126.3 554.3 104.4L535.6 85.7zM236.4 305.7C230.3 311.8 225.6 319.3 222.9 327.6L193.3 416.4C190.4 425 192.7 434.5 199.1 441C205.5 447.5 215 449.7 223.7 446.8L312.5 417.2C320.7 414.5 328.2 409.8 334.4 403.7L496 241.9L398.1 144L236.4 305.7zM160 128C107 128 64 171 64 224L64 480C64 533 107 576 160 576L416 576C469 576 512 533 512 480L512 384C512 366.3 497.7 352 480 352C462.3 352 448 366.3 448 384L448 480C448 497.7 433.7 512 416 512L160 512C142.3 512 128 497.7 128 480L128 224C128 206.3 142.3 192 160 192L256 192C273.7 192 288 177.7 288 160C288 142.3 273.7 128 256 128L160 128z"/></symbol>
</svg>
